<svg width="100" height="100" viewBox="0 0 100 100" fill="none" xmlns="http://www.w3.org/2000/svg">
<rect width="100" height="100" rx="50" fill="#F5F2FF"/>
<rect x="10" y="10" width="80" height="80" rx="40" fill="#5D38DE"/>
<mask id="mask0_119_15471" style="mask-type:luminance" maskUnits="userSpaceOnUse" x="34" y="34" width="32" height="32">
<path d="M34 34H66V66H34V34Z" fill="white"/>
</mask>
<g mask="url(#mask0_119_15471)">
<path d="M59.2628 50.0001H48.3155C45.2266 50.0001 44.105 47.4822 44.105 45.7896V44.1054H40.7365C38.2102 44.1054 38.2102 46.6317 38.2102 46.6317C38.2102 46.6317 36.526 45.7896 35.6839 45.7896C34.8418 45.7896 34.8418 46.6317 34.8418 46.6317V55.0528C34.8418 55.0528 34.8418 55.8949 35.6839 55.8949C36.526 55.8949 38.2102 55.0528 38.2102 55.0528V60.9475C38.2102 64.3159 41.5786 64.3159 41.5786 64.3159H56.7365C60.105 64.3159 60.105 60.9475 60.105 60.9475V49.9109C59.8278 49.9678 59.5458 49.9977 59.2628 50.0001Z" fill="white"/>
<path d="M64.3156 39.8949C63.8449 39.8949 62.5893 40.6814 61.5704 41.377C61.295 40.6814 60.6727 39.8949 59.263 39.8949H49.9998C49.9998 39.8949 45.7893 39.8949 45.7893 44.1054V45.7896C45.7893 45.7896 45.7893 48.3159 48.3156 48.3159H59.263C59.263 48.3159 61.0104 48.3109 61.5965 46.8515C62.6112 47.5429 63.8491 48.3159 64.3156 48.3159C65.1577 48.3159 65.1577 47.4738 65.1577 47.4738V40.737C65.1577 40.737 65.1577 39.8949 64.3156 39.8949ZM42.4209 64.3159V56.737C42.4209 56.737 42.4209 54.2107 44.7367 54.2107H53.3683C53.3683 54.2107 55.8946 54.2107 55.8946 56.737V64.3159H54.2104V56.737C54.2104 56.737 54.2104 55.8949 53.3683 55.8949H44.9472C44.9472 55.8949 44.1051 55.8949 44.1051 56.737V64.3159H42.4209Z" fill="white"/>
</g>
</svg>
