<svg width="100" height="100" viewBox="0 0 100 100" fill="none" xmlns="http://www.w3.org/2000/svg">
<rect width="100" height="100" rx="50" fill="#F5F2FF"/>
<rect x="9" y="10" width="80" height="80" rx="40" fill="#5D38DE"/>
<path d="M55.0313 41.4375C55.0625 41.6875 54.9063 41.875 54.7188 42.0312C53.9688 42.6562 53.1875 43.3125 52.4375 43.9062C52.2188 44.0625 52.1875 44.2188 52.25 44.5C52.5 45.4375 52.7188 46.375 52.9375 47.3125C53.0312 47.6562 52.9375 47.9688 52.6562 48.1875C52.4062 48.375 52.0625 48.375 51.7188 48.1562C50.875 47.625 50 47.0938 49.1562 46.5312C48.9688 46.4062 48.8438 46.4062 48.6563 46.5312C47.8438 47.0625 47.0312 47.5625 46.2187 48.0625C46 48.2187 45.75 48.2812 45.4688 48.2187C45.0625 48.125 44.8125 47.7187 44.9375 47.2812C45.1875 46.25 45.4375 45.25 45.7188 44.2187C45.75 44.0625 45.7188 43.9688 45.625 43.875C44.9062 43.2812 44.1875 42.6562 43.4687 42.0625C43.1875 41.8437 42.9687 41.625 43 41.2188C43.0312 40.8438 43.3125 40.5312 43.7187 40.5C44.7812 40.4375 45.8438 40.3438 46.9062 40.2813C47.0625 40.2813 47.125 40.1875 47.1875 40.0625C47.5312 39.1875 47.9062 38.3125 48.2812 37.4063C48.3125 37.3125 48.3438 37.25 48.375 37.1562C48.5312 36.8437 48.7813 36.6875 49.0938 36.6875C49.4375 36.6875 49.6562 36.875 49.8125 37.1875C50.1875 38.125 50.5625 39.0937 50.9375 40.0312C51 40.2187 51.0938 40.3125 51.3125 40.3125C52.25 40.375 53.1875 40.4375 54.0938 40.5C54.2188 40.5 54.375 40.5312 54.5 40.5625C54.8438 40.75 55.0313 41.0312 55.0313 41.4375ZM49.2813 56.3125L44.875 67.9687C43.9375 67.1562 43.0625 66.0937 42.2812 64.75C42.1875 64.5937 42.0312 64.5312 41.8437 64.5625C40.3437 64.9375 38.875 65.1562 37.4688 65.1562L41.4062 54.7187C41.5312 54.7187 41.6563 54.7187 41.7813 54.6875C42.2813 54.625 42.7813 54.75 43.1875 55C43.4688 55.1875 43.7187 55.4375 43.875 55.7187C44.2812 56.4062 44.9687 56.9062 45.75 57.0625C45.9375 57.0937 46.1562 57.125 46.3438 57.125C46.9375 57.125 47.5313 56.9375 48.0313 56.5937C48.3125 56.4062 48.625 56.25 48.9688 56.2187C49.0938 56.2812 49.1875 56.2812 49.2813 56.3125ZM60.5312 66.5937C59.125 66.5937 57.6563 66.4062 56.1562 66C56 65.9687 55.8125 66.0312 55.7188 66.1875C54.9375 67.5312 54.0625 68.5625 53.125 69.4062L49.5312 59.9062L50.625 57C51.125 57.1875 51.6875 57.2187 52.2188 57.0937C53 56.9375 53.6875 56.4375 54.0938 55.75C54.25 55.4687 54.5 55.2187 54.7812 55.0312C55.1562 54.7812 55.5938 54.6875 56.0312 54.6875L60.5312 66.5937Z" fill="white"/>
<path d="M61.2498 40.8438C60.781 40.5 60.406 40.0625 60.1248 39.5312C59.7185 38.7188 59.6248 37.8438 59.7811 37C59.9373 36.2812 59.4373 35.5312 58.6873 35.4375C58.1248 35.375 57.5623 35.1562 57.0623 34.8125C56.3123 34.2812 55.8123 33.5625 55.5623 32.75C55.3748 32.0312 54.5623 31.625 53.8748 31.9062C53.3748 32.0938 52.781 32.1875 52.1873 32.125C51.281 32.0312 50.4685 31.625 49.906 31C49.656 30.75 49.3123 30.5938 48.9998 30.5938C48.6873 30.5938 48.3435 30.7187 48.0935 30.9687C47.4998 31.5938 46.7185 32 45.8123 32.0937C45.2185 32.1875 44.6248 32.0938 44.0935 31.9062C43.406 31.6562 42.5936 32.0312 42.4061 32.75C42.1873 33.5625 41.656 34.3125 40.906 34.8125C40.406 35.1562 39.8436 35.3438 39.2811 35.4375C38.5311 35.5312 38.031 36.25 38.1873 37C38.3748 37.8125 38.281 38.7188 37.8435 39.5312C37.5623 40.0625 37.1873 40.5 36.7186 40.8438C36.1248 41.2812 35.9998 42.1562 36.4998 42.7188C37.0623 43.375 37.406 44.1875 37.406 45.0937C37.406 45.6875 37.2811 46.2812 37.0311 46.7812C36.7186 47.4375 37.031 48.2812 37.7185 48.5312C38.4998 48.8438 39.1873 49.4062 39.656 50.2187C39.9373 50.75 40.0935 51.3125 40.1248 51.875C40.156 52.625 40.8436 53.1875 41.5623 53.0938C42.4061 53 43.281 53.1562 44.031 53.6562C44.531 53.9687 44.9373 54.4062 45.2186 54.9062C45.5936 55.5625 46.4685 55.7188 47.0623 55.3125C47.5935 54.9375 48.2498 54.6875 48.9373 54.625C49.6248 54.6875 50.2811 54.9062 50.8123 55.3125C51.4373 55.75 52.281 55.5625 52.656 54.9062C52.9373 54.4062 53.3435 54 53.8435 53.6562C54.6248 53.1562 55.4998 53 56.3123 53.0938C57.0623 53.1875 57.7185 52.625 57.7498 51.875C57.7811 51.3125 57.9373 50.75 58.2186 50.2187C58.656 49.4062 59.3435 48.8438 60.156 48.5312C60.8435 48.25 61.1873 47.4375 60.8436 46.7812C60.5936 46.2812 60.4685 45.6875 60.4685 45.0937C60.4685 44.1875 60.8123 43.3438 61.3748 42.7188C61.9685 42.1562 61.8435 41.2812 61.2498 40.8438ZM48.9998 51.2812C44.4685 51.2812 40.8123 47.5938 40.8123 43.0938C40.8123 38.5625 44.4998 34.9062 48.9998 34.9062C53.531 34.9062 57.1873 38.5938 57.1873 43.0938C57.1873 47.5938 53.531 51.2812 48.9998 51.2812Z" fill="white"/>
</svg>
