<svg width="100" height="100" viewBox="0 0 100 100" fill="none" xmlns="http://www.w3.org/2000/svg">
<rect width="100" height="100" rx="50" fill="#F5F2FF"/>
<rect x="10" y="10" width="80" height="80" rx="40" fill="#5D38DE"/>
<path d="M44.7431 51.2363L38.9198 51.0056C38.7092 50.986 38.5234 51.034 38.3411 51.1138C35.8188 52.2038 33.9196 54.343 33.132 56.9845C32.8488 57.9395 33.0258 58.9443 33.6205 59.7449C34.2117 60.542 35.1197 61 36.1091 61H44.69C45.4228 61 46.0175 60.4035 46.0175 59.6686V52.5677C46.0175 51.8541 45.4547 51.2647 44.7431 51.2363ZM66.868 56.9827C66.0804 54.343 64.1812 52.2038 61.6589 51.1121C61.4766 51.0322 61.2908 50.986 61.0802 51.0038L55.2569 51.2346C54.5453 51.263 53.9825 51.8506 53.9825 52.5642V59.665C53.9825 60.4 54.5772 60.9965 55.31 60.9965H63.8909C64.8803 60.9965 65.7883 60.5384 66.3795 59.7414C66.9742 58.9425 67.1512 57.9378 66.868 56.9827Z" fill="white"/>
<path d="M60 42.5C63.0376 42.5 65.5 44.9624 65.5 48C65.5 51.0376 63.0376 53.5 60 53.5C56.9624 53.5 54.5 51.0376 54.5 48C54.5 44.9624 56.9624 42.5 60 42.5Z" fill="white" stroke="#5D38DE"/>
<path d="M40.5 42.5C43.2214 42.5 45.5 44.9206 45.5 48C45.5 51.0794 43.2214 53.5 40.5 53.5C37.7786 53.5 35.5 51.0794 35.5 48C35.5 44.9206 37.7786 42.5 40.5 42.5Z" fill="white" stroke="#5D38DE"/>
<path d="M50.001 50.5C55.591 50.5001 60.3972 54.3222 61.4561 59.5547C61.5973 60.2558 61.4052 60.9826 60.9141 61.5547V61.5557C60.4021 62.1541 59.6441 62.5 58.8311 62.5H41.1689C40.3564 62.5 39.5984 62.1523 39.0859 61.5547C38.5967 60.9845 38.4037 60.2561 38.5449 59.5566C39.6038 54.3224 44.4109 50.5 50.001 50.5Z" fill="white" stroke="#5D38DE"/>
<path d="M50.5 39.5C53.8137 39.5 56.5 42.1863 56.5 45.5C56.5 48.8137 53.8137 51.5 50.5 51.5C47.1863 51.5 44.5 48.8137 44.5 45.5C44.5 42.1863 47.1863 39.5 50.5 39.5Z" fill="white" stroke="#5D38DE"/>
</svg>
