<svg width="101" height="100" viewBox="0 0 101 100" fill="none" xmlns="http://www.w3.org/2000/svg">
<rect x="0.5" width="100" height="100" rx="50" fill="#F5F2FF"/>
<rect x="10.5" y="10" width="80" height="80" rx="40" fill="#5D38DE"/>
<g clip-path="url(#clip0_119_15496)">
<path fill-rule="evenodd" clip-rule="evenodd" d="M40.5079 49V60.3827C41.0153 62.3934 59.2644 62.626 61.5 60.5323V49H40.5079Z" fill="white"/>
<path fill-rule="evenodd" clip-rule="evenodd" d="M34.1556 54C34.1556 54 33.5557 57.8331 33.5021 58.931C33.4807 59.3162 33.6253 59.6244 33.8556 59.817V57.39H34.0592V59.9326C34.1556 59.9807 34.268 60 34.3805 60V57.4575H34.5787V59.9904C34.6952 59.9664 34.8101 59.9213 34.9215 59.8555V57.5056H35.1197V59.7207C35.2576 59.6064 35.3856 59.4572 35.5 59.2777L34.9269 54.443L34.1556 54Z" fill="white"/>
<path fill-rule="evenodd" clip-rule="evenodd" d="M34.5 46H35.5V54H34.5V46Z" fill="white"/>
<path d="M34.5 54C35.0523 54 35.5 53.7761 35.5 53.5C35.5 53.2239 35.0523 53 34.5 53C33.9477 53 33.5 53.2239 33.5 53.5C33.5 53.7761 33.9477 54 34.5 54Z" fill="white"/>
<path d="M68.9824 45.1133L50.4463 51.4707C44.289 49.3127 38.15 47.1795 32.0039 45.001L50.4443 38.5293L68.9824 45.1133Z" fill="white" stroke="#5D38DE"/>
</g>
<defs>
<clipPath id="clip0_119_15496">
<rect width="40" height="40" fill="white" transform="translate(30.5 30)"/>
</clipPath>
</defs>
</svg>
