<svg width="15" height="32" viewBox="0 0 15 32" fill="none" xmlns="http://www.w3.org/2000/svg">
<path d="M0.672984 10.633C0.433713 10.8435 0.264201 11.1219 0.187 11.431C0.109799 11.7402 0.128568 12.0656 0.24081 12.3638C0.353052 12.6621 0.553445 12.9191 0.815332 13.1007C1.07722 13.2822 1.38818 13.3798 1.70686 13.3803C2.08424 13.3803 2.44907 13.2433 2.73237 12.9966C2.80241 12.9381 4.45096 11.5415 7.58708 10.1009C9.60678 9.17175 11.6595 8.31608 13.7412 7.53559C14.1353 7.39238 14.4479 7.10386 14.6245 6.72438C14.8022 6.34387 14.8211 5.91945 14.6768 5.52534C14.3904 4.73504 13.4537 4.29912 12.6676 4.58869C10.5056 5.39646 8.37436 6.28424 6.27827 7.25021C2.63515 8.9228 0.750342 10.564 0.672984 10.633ZM1.76749 7.63072C2.08215 7.63072 2.38949 7.53873 2.65815 7.36415C3.17247 7.0265 4.61404 6.12957 6.86891 5.09047C8.11081 4.51921 9.36412 3.97306 10.6281 3.45237C11.0271 3.2865 11.3443 2.96939 11.5102 2.57036C11.6761 2.17134 11.6773 1.72285 11.5135 1.32295C11.3443 0.927338 11.0276 0.613242 10.6306 0.447338C10.2336 0.281435 9.78757 0.276787 9.38721 0.43438C8.0832 0.971714 6.79016 1.53528 5.50888 2.12475C3.78192 2.92028 2.09365 3.83393 0.874741 4.63155C0.513666 4.86916 0.261299 5.24001 0.172766 5.66309C0.084232 6.08618 0.166728 6.5271 0.402233 6.88955C0.7033 7.3537 1.21344 7.63072 1.76749 7.63072ZM13.7412 12.797C14.1353 12.6527 14.4479 12.3652 14.6245 11.9857C14.8022 11.6052 14.8211 11.1798 14.6768 10.7867C14.3904 9.9964 13.4474 9.56048 12.6676 9.85005C10.5058 10.6582 8.37454 11.546 6.27827 12.5116C2.63515 14.1842 0.750342 15.8254 0.671939 15.8944C0.501588 16.0437 0.36561 16.2281 0.273362 16.435C0.181115 16.6419 0.134788 16.8664 0.137569 17.0929C0.140351 17.3194 0.192175 17.5426 0.289476 17.7471C0.386776 17.9517 0.527243 18.1328 0.701209 18.2778L3.27387 20.4229V22.2691H2.75118C2.61274 22.2693 2.48006 22.3245 2.38226 22.4225C2.28447 22.5205 2.22954 22.6533 2.22954 22.7918V27.5022C2.22954 28.1963 2.49089 28.8507 2.96653 29.3442L4.05372 30.4721L4.05581 30.4742L4.27534 30.7031C4.57053 31.0101 4.92434 31.2547 5.31579 31.4224C5.70725 31.5901 6.12838 31.6775 6.55425 31.6795H8.35856C9.2074 31.6795 10.0374 31.3241 10.6354 30.7031L10.856 30.4742V30.4721L11.9463 29.3431C12.4212 28.8487 12.6852 28.1888 12.6822 27.5033V22.7918C12.6822 22.6531 12.6272 22.5202 12.5291 22.4222C12.4311 22.3241 12.2982 22.2691 12.1595 22.2691H11.6368V19.4915L13.9827 17.8816C14.3465 17.6736 14.6078 17.337 14.7176 16.9324C14.8001 16.6304 14.7903 16.3105 14.6894 16.0141C14.5885 15.7176 14.401 15.4583 14.1513 15.2694C13.9015 15.0805 13.6009 14.9707 13.2882 14.9543C12.9755 14.9379 12.665 15.0156 12.3968 15.1773L9.29208 17.2481C9.05202 17.3855 8.85244 17.5838 8.7135 17.8229C8.57456 18.0621 8.50117 18.3337 8.50073 18.6103V22.2691H6.40999V19.688C6.40999 19.2208 6.20509 18.7817 5.84758 18.4827L4.26488 17.1645C5.05623 16.6565 6.16955 16.0136 7.58812 15.3623C9.60778 14.433 11.6595 13.5773 13.7412 12.797ZM3.79656 23.3134H11.6368V25.4418H3.27387V23.3144H3.79656V23.3134ZM10.257 29.5877H4.65376L3.71815 28.6176C3.4405 28.3239 3.28309 27.9367 3.27701 27.5325H11.6327C11.6268 27.936 11.4702 28.3227 11.1936 28.6166L10.257 29.5877Z" fill="#5D38DE"/>
</svg>
