<svg width="16" height="16" viewBox="0 0 16 16" fill="none" xmlns="http://www.w3.org/2000/svg">
<path d="M8.10361 2.02979L10.0507 5.97499L14.4045 6.60766L11.2541 9.67857L11.9978 14.0148L8.10361 11.9675L4.20945 14.0148L4.95319 9.67857L1.80273 6.60764L6.15655 5.97499L8.10361 2.02979Z" fill="#FFD700"/>
<path d="M7.72559 2.25076C8.02367 2.85471 8.32175 3.45868 8.61981 4.06264C8.96522 4.76251 9.31064 5.46237 9.65604 6.16224C9.78372 6.42095 10.045 6.41314 10.2873 6.44834C10.7042 6.50893 11.1212 6.56951 11.5382 6.6301C12.4009 6.75546 13.2635 6.88082 14.1262 7.00618C14.1802 7.01401 14.2341 7.02185 14.288 7.02968C14.2236 6.78593 14.1593 6.5422 14.0949 6.29845C13.6126 6.76856 13.1304 7.23868 12.648 7.70879C12.0892 8.25356 11.5303 8.79832 10.9714 9.34312C10.9082 9.4047 10.8563 9.47376 10.832 9.56242C10.8066 9.65462 10.8229 9.74212 10.8383 9.83209C10.8558 9.93401 10.8733 10.036 10.8907 10.1379C10.9616 10.5511 11.0325 10.9644 11.1034 11.3777C11.2512 12.2397 11.3991 13.1018 11.5469 13.9638C11.5565 14.0196 11.5661 14.0754 11.5757 14.1312C11.7899 13.9666 12.0041 13.8019 12.2183 13.6372C11.6222 13.3238 11.026 13.0104 10.4299 12.6969C9.73909 12.3338 9.04826 11.9706 8.35745 11.6074C8.27775 11.5655 8.19756 11.5302 8.10334 11.5302C8.00912 11.5302 7.92894 11.5655 7.84923 11.6074C7.7577 11.6555 7.66615 11.7037 7.57462 11.7518C7.2035 11.9469 6.83236 12.142 6.46123 12.3371C5.68708 12.7441 4.9129 13.1511 4.13875 13.5581C4.08862 13.5845 4.0385 13.6108 3.98837 13.6372C4.20261 13.8019 4.41683 13.9666 4.63106 14.1313C4.74492 13.4674 4.85876 12.8036 4.97262 12.1398C5.10456 11.3706 5.23648 10.6014 5.36842 9.83212C5.38386 9.74215 5.40014 9.65467 5.37478 9.56245C5.35039 9.47379 5.29851 9.40473 5.23534 9.34315C5.16128 9.27096 5.08723 9.19878 5.01317 9.12659C4.71292 8.83392 4.41267 8.54123 4.11242 8.24857C3.48611 7.63807 2.85979 7.02756 2.23348 6.41706C2.19294 6.37753 2.15239 6.33799 2.11183 6.29848C2.04748 6.54223 1.98312 6.78596 1.91878 7.02971C2.58529 6.93285 3.25179 6.83601 3.91831 6.73917C4.69065 6.62693 5.46301 6.51471 6.23537 6.40248C6.50225 6.36371 6.58931 6.08406 6.69197 5.87604C6.87843 5.49821 7.0649 5.12037 7.25137 4.74254C7.63718 3.96082 8.02298 3.17909 8.40878 2.39737C8.43289 2.34853 8.457 2.29967 8.48111 2.25082C8.58665 2.03696 8.54051 1.77896 8.32415 1.65223C8.12945 1.53818 7.83106 1.59545 7.72558 1.80918C7.4275 2.41314 7.12943 3.0171 6.83137 3.62106C6.48597 4.32093 6.14058 5.02079 5.79517 5.72067C5.78962 5.73192 5.78408 5.74315 5.77853 5.75438C5.86568 5.68737 5.95284 5.62035 6.04 5.55332C5.37348 5.65018 4.70698 5.74703 4.04047 5.84387C3.26812 5.9561 2.49576 6.06832 1.7234 6.18056C1.711 6.18235 1.69859 6.18415 1.68619 6.18596C1.54081 6.20709 1.41717 6.35862 1.38061 6.49154C1.33961 6.6406 1.38179 6.80868 1.49312 6.9172C1.97542 7.38732 2.4577 7.85743 2.94 8.32756C3.49889 8.87232 4.05776 9.4171 4.61664 9.96189C4.62562 9.97064 4.63459 9.97939 4.64358 9.98814C4.60608 9.84624 4.56856 9.70437 4.53106 9.56248C4.4172 10.2263 4.30336 10.8901 4.1895 11.5539C4.05756 12.3232 3.92562 13.0924 3.7937 13.8616C3.79158 13.874 3.78947 13.8863 3.78734 13.8987C3.7602 14.0569 3.78123 14.2057 3.89986 14.3243C4.04353 14.468 4.25486 14.4848 4.43003 14.3927C5.02617 14.0793 5.62231 13.7659 6.21845 13.4525C6.90926 13.0893 7.60008 12.7262 8.29089 12.363C8.30198 12.3572 8.31308 12.3513 8.32417 12.3455C8.17697 12.3455 8.02975 12.3455 7.88254 12.3455C8.4787 12.6589 9.07484 12.9723 9.67098 13.2857C10.3618 13.6489 11.0526 14.0121 11.7434 14.3753C11.7545 14.3811 11.7656 14.3869 11.7767 14.3927C11.9169 14.4664 12.0787 14.4746 12.2184 14.3927C12.4001 14.2863 12.4531 14.0949 12.4194 13.8987C12.3056 13.2349 12.1917 12.571 12.0779 11.9072C11.9459 11.138 11.814 10.3688 11.6821 9.59954C11.68 9.58718 11.6778 9.57484 11.6757 9.56248C11.6382 9.70437 11.6007 9.84624 11.5632 9.98814C12.0455 9.51803 12.5278 9.0479 13.0101 8.57779C13.569 8.03303 14.1278 7.48824 14.6867 6.94348C14.6957 6.93473 14.7047 6.92598 14.7137 6.91723C14.825 6.80873 14.8672 6.64064 14.8262 6.49157C14.7896 6.35867 14.666 6.20712 14.5206 6.18599C13.8541 6.08915 13.1876 5.99229 12.5211 5.89545C11.7487 5.78321 10.9764 5.67098 10.204 5.55874C10.1916 5.55695 10.1792 5.55515 10.1668 5.55334C10.2539 5.62037 10.3411 5.68739 10.4282 5.7544C10.1302 5.15045 9.83209 4.54648 9.53403 3.94253C9.18862 3.24265 8.8432 2.54279 8.49779 1.84292C8.49226 1.83167 8.4867 1.82043 8.48115 1.80918C8.37567 1.59545 8.07728 1.53818 7.88258 1.65223C7.6662 1.77892 7.62004 2.0369 7.72559 2.25076Z" fill="#FFD700"/>
</svg>
